<svg id="レイヤー_1" data-name="レイヤー 1" xmlns="http://www.w3.org/2000/svg" viewBox="0 0 151.29 100.53"><defs><style>.cls-1{fill:#dd67a2;}</style></defs><title>アートボード 1</title><path class="cls-1" d="M26.93,0C27.52,0,28,.66,28,1.86c0,1.46-2,56.35-2.11,57.41-.13,2.65-.86,3.32-1.32,3.32H3.36c-.79,0-1.12-.93-1.19-2.66C2.17,59.27,0,3.85,0,2.52,0,.66.6,0,1.25,0ZM25.74,69.77c.53,0,1,.8,1,2.13V98.34a1.43,1.43,0,0,1-1.38,1.33h-23c-.66,0-1.05-.8-1.05-2.52V71.5c0-.93.52-1.73,1.25-1.73Z"/><path class="cls-1" d="M55.33,83.43A5.86,5.86,0,0,0,54.17,81a4.4,4.4,0,0,0-3.5-1.46c-3.37,0-5.37,2.66-5.37,7.24s2.12,7.41,5.45,7.41a4.81,4.81,0,0,0,4-1.83,4.1,4.1,0,0,0,.75-1.92l7.66,1.21a12.55,12.55,0,0,1-1.75,4.12c-2.08,3.08-5.87,4.79-10.7,4.79-4,0-7.41-1.25-9.7-3.58a14.08,14.08,0,0,1-3.75-10.12c0-8.33,5.24-13.65,13.36-13.65,6.41,0,10.86,3.16,12.24,8.7Z"/><path class="cls-1" d="M65.28,86.84c0-8.33,5.33-13.61,13.74-13.61s13.74,5.29,13.74,13.53S87.26,100.53,79,100.53,65.28,95.21,65.28,86.84Zm8,0c0,4.62,2.16,7.41,5.79,7.41s5.7-2.71,5.7-7.33-2.12-7.41-5.66-7.41S73.24,82.22,73.24,86.8Z"/><path class="cls-1" d="M96.13,99.58a45.73,45.73,0,0,0,.33-6.29V80.47a38.64,38.64,0,0,0-.33-6.29h8.24v1.75a4.26,4.26,0,0,1,0,.58v.42a10.08,10.08,0,0,1,8-3.41,8.87,8.87,0,0,1,5.33,1.5,5.12,5.12,0,0,1,1.71,2.08,11.39,11.39,0,0,1,8.74-3.62c6,0,9,3.25,9,9.53V93.33a45.85,45.85,0,0,0,.33,6.24h-8.66a44.37,44.37,0,0,0,.33-6.29V84.72c0-3.12-.92-4.33-3.29-4.33-2.12,0-4,1.66-5.08,4.45v8.49a47.06,47.06,0,0,0,.33,6.24h-8.66a45,45,0,0,0,.33-6.29V84.72c0-1.75-.17-2.54-.71-3.25a2.68,2.68,0,0,0-2.29-1c-2.25,0-4.16,1.62-5.33,4.45v8.41a46.91,46.91,0,0,0,.33,6.29Z"/><path class="cls-1" d="M151.29,73.72a25.58,25.58,0,0,0-.32,4.75V95.13a30,30,0,0,0,.32,4.75H143a25.36,25.36,0,0,0,.32-4.75V78.47a24.12,24.12,0,0,0-.32-4.75Z"/></svg>